<svg xmlns="http://www.w3.org/2000/svg" xmlns:xlink="http://www.w3.org/1999/xlink" viewBox="0 0 300 300"><defs><style>.cls-1{fill:url(#linear-gradient);}.cls-2{fill:url(#linear-gradient-2);}.cls-3{fill:url(#linear-gradient-3);}.cls-4{fill:url(#linear-gradient-4);}</style><linearGradient id="linear-gradient" x1="25" y1="150" x2="275" y2="150" gradientUnits="userSpaceOnUse"><stop offset="0" stop-color="#ba007c"/><stop offset="1" stop-color="#17207f"/></linearGradient><linearGradient id="linear-gradient-2" x1="177.34" y1="114.67" x2="194.66" y2="114.67" xlink:href="#linear-gradient"/><linearGradient id="linear-gradient-3" x1="114.5" y1="150.37" x2="185.51" y2="150.37" xlink:href="#linear-gradient"/><linearGradient id="linear-gradient-4" x1="80.64" x2="219.36" xlink:href="#linear-gradient"/></defs><g id="OBJECTS"><path class="cls-1" d="M150,275A125,125,0,1,1,275,150,125.14,125.14,0,0,1,150,275Zm0-232.83A107.83,107.83,0,1,0,257.83,150,107.95,107.95,0,0,0,150,42.17Z"/><path class="cls-2" d="M186.2,106.05c5.16.07,8.47,3.45,8.46,8.64a8.75,8.75,0,0,1-8.69,8.63c-4.66,0-8.36-4-8.62-8.83C177.14,110.82,181.35,105.54,186.2,106.05Z"/><path class="cls-3" d="M150.48,114.87a35.5,35.5,0,1,0,35,35.54A35.29,35.29,0,0,0,150.48,114.87Zm-.27,57.68a22.18,22.18,0,1,1,21.9-22.43A22,22,0,0,1,150.21,172.55Z"/><path class="cls-4" d="M219.29,125.5a7.89,7.89,0,0,0-.22-2.38c0-.89-.12-1.72-.19-2.56a3.05,3.05,0,0,0,.05-.52,40.17,40.17,0,0,0-1.32-8.28,46.79,46.79,0,0,0-2.9-9.21s0-.12,0-.17-.17-.25-.24-.39a22.71,22.71,0,0,0-5.52-7.84A37.16,37.16,0,0,0,200,86.79a41.47,41.47,0,0,0-21.18-6.09H121.09a36.88,36.88,0,0,0-13.41,2.53c-14.15,5.49-23.24,15.41-26.29,30.51-.23,4-.65,8-.67,11.93q-.14,24.87,0,49.75a52.19,52.19,0,0,0,.7,9.1c3,16.2,12.28,27.06,27.76,32.66a42.64,42.64,0,0,0,14.64,2.09q26.31.06,52.61,0a53,53,0,0,0,8-.54,39.78,39.78,0,0,0,23.77-12.58,41.18,41.18,0,0,0,11.16-28.61C219.43,160.19,219.31,142.84,219.29,125.5Zm-13.43,3.58c-.06,1.89,0,3.79,0,5.69q-.08,20.83,0,41.68c0,5.22-.72,10.23-3.2,14.91-4.64,8.75-12,13.52-21.7,14.77a47.07,47.07,0,0,1-5.7.2H124.42a35.32,35.32,0,0,1-10.17-1.11,27.45,27.45,0,0,1-19.85-24c-.18-1.89-.21-3.8-.21-5.7,0-16.94-.07-33.88,0-50.82,0-.52,0-1,0-1.57,0-3.65.06-7.32,1.9-10.7,1.09-1.76,2.12-3.59,3.31-5.29C105,99,113.06,95.42,122.71,95c2.85-.12,5.71,0,8.57,0h44.54a31.49,31.49,0,0,1,20.59,7.11,21.7,21.7,0,0,1,1.55,1.78c.21.28.42.55.64.81,5.62,7.57,7,18,7.27,24.36C205.87,129,205.86,129.06,205.86,129.08Z"/></g></svg>