<svg xmlns="http://www.w3.org/2000/svg" viewBox="0 0 24 24" width="100" height="100">
    <defs>
        <linearGradient id="orangeGradient" x1="0%" y1="0%" x2="100%" y2="100%">
            <stop offset="0%" stop-color="#ff6326" />
            <stop offset="100%" stop-color="#ff894d" />
        </linearGradient>
    </defs>
    <path fill="url(#orangeGradient)" d="M12 0C5.373 0 0 5.373 0 12s5.373 12 12 12 12-5.373 12-12S18.627 0 12 0zm5.513 17.548a.94.94 0 01-1.288.28c-3.53-2.173-7.978-2.664-13.175-1.458a.937.937 0 01-.45-1.82c5.665-1.408 10.636-.865 14.585 1.672a.939.939 0 01.328 1.326zm1.53-3.577a1.173 1.173 0 01-1.611.348c-4.042-2.49-10.19-3.213-14.959-1.746a1.173 1.173 0 01-.732-2.22c5.297-1.748 12.134-.93 16.741 2.026.553.34.732 1.083.348 1.592zm.109-3.76c-5.02-3.046-12.93-3.41-17.774-1.854a1.409 1.409 0 01-1.017-2.634c5.8-1.746 14.293-1.308 19.788 2.434a1.407 1.407 0 01.366 1.978z"/>
</svg>
