<svg xmlns="http://www.w3.org/2000/svg" viewBox="0 0 24 24" width="100" height="100">
    <defs>
        <linearGradient id="orangeGradient" x1="0%" y1="0%" x2="100%" y2="100%">
            <stop offset="0%" stop-color="#ff6326" />
            <stop offset="100%" stop-color="#ff894d" />
        </linearGradient>
    </defs>
    <path fill="url(#orangeGradient)" d="M12 2.163c3.204 0 3.584.012 4.849.07 1.366.062 2.633.34 3.608 1.316.975.975 1.254 2.243 1.316 3.608.059 1.265.07 1.645.07 4.849s-.012 3.584-.07 4.849c-.062 1.366-.34 2.633-1.316 3.608-.975.975-2.243 1.254-3.608 1.316-1.265.059-1.645.07-4.849.07s-3.584-.012-4.849-.07c-1.366-.062-2.633-.34-3.608-1.316-.975-.975-1.254-2.243-1.316-3.608C2.175 15.633 2.163 15.204 2.163 12s.012-3.584.07-4.849c.062-1.366.34-2.633 1.316-3.608.975-.975 2.243-1.254 3.608-1.316C8.417 2.175 8.435 2.163 12 2.163zM12 5.689c-3.477 0-6.311 2.834-6.311 6.311s2.834 6.311 6.311 6.311 6.311-2.834 6.311-6.311-2.834-6.311-6.311-6.311zm0 2.736c2.092 0 3.575 1.483 3.575 3.575s-1.483 3.575-3.575 3.575-3.575-1.483-3.575-3.575 1.483-3.575 3.575-3.575zm4.64-.922c.537 0 .975-.438.975-.975s-.438-.975-.975-.975-.975.438-.975.975.438.975.975.975z"/>
</svg>
