<svg xmlns="http://www.w3.org/2000/svg" xmlns:xlink="http://www.w3.org/1999/xlink" viewBox="0 0 300 300"><defs><style>.cls-1{fill:url(#linear-gradient);}.cls-2{fill:url(#linear-gradient-2);}</style><linearGradient id="linear-gradient" x1="25" y1="150" x2="275" y2="150" gradientUnits="userSpaceOnUse"><stop offset="0" stop-color="#ba007c"/><stop offset="1" stop-color="#17207f"/></linearGradient><linearGradient id="linear-gradient-2" x1="80.54" x2="219.46" xlink:href="#linear-gradient"/></defs><g id="OBJECTS"><path class="cls-1" d="M150,275A125,125,0,1,1,275,150,125.14,125.14,0,0,1,150,275Zm0-232.83A107.83,107.83,0,1,0,257.83,150,107.95,107.95,0,0,0,150,42.17Z"/><path class="cls-2" d="M150.2,80.51a69.07,69.07,0,0,0-69.66,69.28c-.08,40.37,32.58,69.6,69.27,69.7a69.49,69.49,0,0,0,.39-139ZM180.3,181c-1.05,2.23-3.64,3.11-6.33,2.13-.71-.26-1.39-.61-2.08-.94-13.58-6.62-27.93-8.28-42.78-6.53-3,.36-6,1-9,1.42a21.18,21.18,0,0,1-4,.3,4.57,4.57,0,0,1-1.69-8.66,21,21,0,0,1,4.34-1.36c6.34-1.41,12.8-1.69,18.72-2.13,9.48.24,18.36.91,27,3.6a108.92,108.92,0,0,1,12.62,5.25,8.09,8.09,0,0,1,1,.56C180.54,176.26,181.38,178.72,180.3,181Zm9-18.53a5.69,5.69,0,0,1-6.74,2.93,23.15,23.15,0,0,1-3.66-1.59c-10.92-5.53-22.62-7.78-34.74-8.27a109.83,109.83,0,0,0-26.69,2.38,17.76,17.76,0,0,1-3.93.57,5.57,5.57,0,0,1-2.22-10.59,16,16,0,0,1,3.79-1.22,117,117,0,0,1,26.28-2.61A97.82,97.82,0,0,1,165,146.6a76.41,76.41,0,0,1,18.74,6.83,24.84,24.84,0,0,1,3.89,2.38A5.46,5.46,0,0,1,189.29,162.48Zm3.9-16.49a23.79,23.79,0,0,1-4.75-1.93,91.22,91.22,0,0,0-31.54-9.41,134.34,134.34,0,0,0-44.27,2,23,23,0,0,1-4.51.59,6.68,6.68,0,0,1-6.93-5.56,6.76,6.76,0,0,1,4-7.44,21.19,21.19,0,0,1,3.81-1.13,131.7,131.7,0,0,1,30.58-3.39,124.5,124.5,0,0,1,34,3.72,89.73,89.73,0,0,1,22.25,8.76,17.94,17.94,0,0,1,3.7,2.62,6.75,6.75,0,0,1,1,7.92A6.84,6.84,0,0,1,193.19,146Z"/></g></svg>