<svg xmlns="http://www.w3.org/2000/svg" xmlns:xlink="http://www.w3.org/1999/xlink" viewBox="0 0 300 300"><defs><style>.cls-1{fill:url(#linear-gradient);}.cls-2{fill:url(#linear-gradient-2);}</style><linearGradient id="linear-gradient" x1="25" y1="150" x2="275" y2="150" gradientUnits="userSpaceOnUse"><stop offset="0" stop-color="#ba007c"/><stop offset="1" stop-color="#17207f"/></linearGradient><linearGradient id="linear-gradient-2" x1="105.76" y1="147.39" x2="185.56" y2="147.39" xlink:href="#linear-gradient"/></defs><g id="OBJECTS"><path class="cls-1" d="M150,275A125,125,0,1,1,275,150,125.14,125.14,0,0,1,150,275Zm0-232.83A107.83,107.83,0,1,0,257.83,150,107.95,107.95,0,0,0,150,42.17Z"/><path class="cls-2" d="M155.46,163.85c0,4.77,0,9.53,0,14.3a46.42,46.42,0,0,0,.23,5.14c.7,6.21,4.29,9.53,10.56,9.84a18.3,18.3,0,0,0,10.34-2.77c1.91-1.13,2.48-.91,3.44,1.19,1.74,3.81,3.37,7.68,5.1,11.5a3.7,3.7,0,0,1-1,4.61,27.94,27.94,0,0,1-12,7.44c-11.76,3.4-23.1,2.24-33.54-4.25-9.25-5.75-14-14.38-14.17-25.3-.16-11.81,0-23.64,0-35.46,0-1.52,0-3.05,0-4.57-.11-3.48-.45-3.85-4-3.91-4-.07-8,0-12-.07-1.79,0-2.51-.69-2.52-2.38-.05-6.48,0-13,0-19.45A3.1,3.1,0,0,1,107.5,117c.82-.48,1.68-.89,2.5-1.37a53.36,53.36,0,0,0,25.37-33.16c0-.19.08-.38.13-.56,1.07-3.94,1.07-4,4.92-4,4.19,0,8.39,0,12.58.07,1.74,0,2.36.72,2.4,2.51.08,3.62,0,7.25,0,10.87,0,7.63,0,15.25,0,22.88,0,2.89.54,3.4,3.31,3.44,5.34.07,10.68,0,16,0,1.33,0,2.67,0,4,.1a1.87,1.87,0,0,1,1.85,1.81c.11,1.52.11,3,.12,4.57,0,4.58,0,9.15,0,13.73,0,3.3-.39,3.68-3.54,3.72-4.95.06-9.91,0-14.87,0-1.33,0-2.67,0-4,.06-2.11.13-2.74.71-2.84,2.75s-.06,4.2-.06,6.29c0,4.39,0,8.78,0,13.16Z"/></g></svg>