<svg xmlns="http://www.w3.org/2000/svg" xmlns:xlink="http://www.w3.org/1999/xlink" viewBox="0 0 300 300"><defs><style>.cls-1{fill:url(#linear-gradient);}.cls-2{fill:url(#linear-gradient-2);}</style><linearGradient id="linear-gradient" x1="25" y1="150" x2="275" y2="150" gradientUnits="userSpaceOnUse"><stop offset="0" stop-color="#ba007c"/><stop offset="1" stop-color="#17207f"/></linearGradient><linearGradient id="linear-gradient-2" x1="80.29" x2="219.71" xlink:href="#linear-gradient"/></defs><g id="OBJECTS"><path class="cls-1" d="M150,275A125,125,0,1,1,275,150,125.14,125.14,0,0,1,150,275Zm0-232.83A107.83,107.83,0,1,0,257.83,150,107.95,107.95,0,0,0,150,42.17Z"/><path class="cls-2" d="M219.07,126.72c-.79-13.85-12.34-24.71-26.19-25.76-2.08-.16-4.19-.19-6.28-.19q-36.87,0-73.73,0c-1.91,0-3.81.06-5.71.16a28.59,28.59,0,0,0-26.64,26c-.12,1.52-.22,3-.22,4.57q0,18.57,0,37.15c0,1.33.07,2.67.18,4a28.56,28.56,0,0,0,25.19,26.24,61,61,0,0,0,7.41.34c12.19,0,24.39,0,36.58,0h37.15c2.66-.14,5.36-.08,8-.46,13.17-1.94,23.61-12.53,24.3-25.79A422.59,422.59,0,0,0,219.07,126.72ZM170.3,152.08a28,28,0,0,1-3,1.61c-10.29,4.93-20.62,9.77-30.87,14.78-4.29,2.1-5.9,1.57-5.78-3.48.06-2.47.07-4.94.06-7.41s0-5,0-7.42c0-5.13,0-10.27,0-15.4a16.42,16.42,0,0,1,.41-3.36,1.54,1.54,0,0,1,1.74-1.15,6.21,6.21,0,0,1,2.16.69q17.06,8.63,34.08,17.29a9,9,0,0,1,1.43.94A1.81,1.81,0,0,1,170.3,152.08Z"/></g></svg>